# xmcd
#
# Track frame offsets: 
#        150
#        9125
#        22802
#        36737
#        46359
#        58832
#        70305
#        86447
#        96387
#        111535
#        124105
#        139081
#        148362
#        160585
#        175152
#        187739
#        198853
#        210638
#        220270
#        234801
#        246401
#        263463
#        274072
#        284126
#        299608
#
# Disc length: 4160 seconds
#
# Revision: 1
# Processed by: cddbd v1.5.2PL0 Copyright (c) Steve Scherf et al.
# Submitted via: ExactAudioCopyFreeDBPlugin 1.0
#
DISCID=7c103e19
DTITLE=Various Artist - Meat and Gravy From Bea and Baby [CD2]
DYEAR=2002
DGENRE=Blues
TTITLE0=L.C. McKinley - Nit Wit
TTITLE1=Eddie Boyd - All The Way
TTITLE2=Jimmy Cotton - One More Mile
TTITLE3=Hound Dog Taylor - Five Take Five
TTITLE4=Little Mac - Woman, Help Me
TTITLE5=Sunnyland Slim - She Got That Jive
TTITLE6=Willie Williams - 38 Woman
TTITLE7=Detroit Jr. - Money Tree
TTITLE8=Andrew McMahon - Potato Diggin' Man
TTITLE9=Eddie Boyd - You Got To Reap
TTITLE10=Arelean Brown - I Love My Man
TTITLE11=Little Mac - Hootenanny Blues
TTITLE12=Sunnyland Slim - House Rock
TTITLE13=Homesick James - Homesick Sunnyland Special
TTITLE14=Willie Hudson - It's You I'm Going To Miss
TTITLE15=Andrew McMahon - Worried All The Time
TTITLE16=Eddie Boyd - I'm Coming Home
TTITLE17=Little Mac - Trouble No More
TTITLE18=Willie Williams - Ruthie Baby
TTITLE19=Tall Paul Hankins - Red Hot
TTITLE20=Sunnyland Slim - Too Late To Pray
TTITLE21=Willie Williams - Somebody Changed The Lock
TTITLE22=Little Mac - I'm Your Fool
TTITLE23=Sunnyland Slim - Little Girl
TTITLE24=Eddie Boyd - Where You Belong
EXTD=
EXTT0=
EXTT1=
EXTT2=
EXTT3=
EXTT4=
EXTT5=
EXTT6=
EXTT7=
EXTT8=
EXTT9=
EXTT10=
EXTT11=
EXTT12=
EXTT13=
EXTT14=
EXTT15=
EXTT16=
EXTT17=
EXTT18=
EXTT19=
EXTT20=
EXTT21=
EXTT22=
EXTT23=
EXTT24=
PLAYORDER=
